With: Tamar van den Dop, Tom Jansen and Ariane Schluter

Nederlands gesproken,
Eva Bender (Tamar van den Dop) werkt als au-pair in Frankrijk. Wanneer ze haar vriendin Tessa (Ariane Schluter) te gast heeft, krijgt ze ook bezoek van haar ouders (Tom Jansen en Truus te Selle) die duidelijk met iets in hun maag zitten. Wat er is willen ze Eva nog niet vertellen en een dag later krijgen ze een ongeluk waarbij haar moeder overlijdt en haar vader in een coma raakt. Hierna gaat Eva op zoek naar de geheimen van haar ouders.

Dutch spoken,
When Eva's father is hospitalised after getting into a coma, she goes out to investigate his life. She discovers that her father wasn't a real nice guy, he was involved in a Russian drug syndicate. The deeper she digs into his past, the more she finds out about her father's past and the deeper she gets into his trouble herself. In the end she is totally mixed up in the whole plot and has big trouble getting out.
 
http://www.imdb.com/title/tt0115427	

------------------------ Dutch Friends ------------------------
---------------------------------------------------------------
- Bezoek ook eens mijn vrienden op:  http://www.Film-Test.nl --
----- voor mijn Nederlandse Sync. ondertitels ---- en meer ----
------- http://www.Film-Test.nl ---- Over Films en meer -------
---------------------------------------------------------------

General:

Complete name                    : Deel 01.avi
Format                           : AVI
Format/Info                      : Audio Video Interleave
File size                        : 802 MiB
Duration                         : 52mn 25s
Overall bit rate                 : 2 138 Kbps

Video:

Format                           : MPEG-4 Visual
Format profile                   : Simple@L3
Format settings, BVOP            : No
Format settings, QPel            : No
Format settings, GMC             : No warppoints
Format settings, Matrix          : Default (H.263)
Codec ID                         : XVID
Codec ID/Hint                    : XviD
Duration                         : 52mn 25s
Bit rate                         : 1 679 Kbps
Width                            : 704 pixels
Height                           : 424 pixels
Display aspect ratio             : 1.660
Frame rate                       : 25.000 fps
Color space                      : YUV
Chroma subsampling               : 4:2:0
Bit depth                        : 8 bits
Scan type                        : Progressive
Compression mode                 : Lossy
Bits/(Pixel*Frame)               : 0.225
Stream size                      : 630 MiB (79%)
Writing library                  : XviD 1.1.2 (UTC 2006-11-01)

Audio:

Format                           : AC-3
Format/Info                      : Audio Coding 3
Mode extension                   : CM (complete main)
Codec ID                         : 2000
Duration                         : 52mn 25s
Bit rate mode                    : Constant
Bit rate                         : 448 Kbps
Channel(s)                       : 6 channels
Channel positions                : Front: L C R, Side: L R, LFE
Sampling rate                    : 48.0 KHz
Bit depth                        : 16 bits
Compression mode                 : Lossy
Stream size                      : 168 MiB (21%)
Alignment                        : Aligned on interleaves
Interleave, duration             : 32 ms (0.80 video frame)
Interleave, preload duration     : 64 ms